<?xml version="1.0" encoding="utf-8"?>
<!-- Generator: Adobe Illustrator 16.0.0, SVG Export Plug-In . SVG Version: 6.00 Build 0)  -->
<!DOCTYPE svg PUBLIC "-//W3C//DTD SVG 1.1//EN" "http://www.w3.org/Graphics/SVG/1.1/DTD/svg11.dtd">
<svg version="1.1" id="Layer_1" xmlns="http://www.w3.org/2000/svg" xmlns:xlink="http://www.w3.org/1999/xlink" x="0px" y="0px"
	 width="60px" height="60px" viewBox="0 0 60 60" enable-background="new 0 0 60 60" xml:space="preserve">
<ellipse fill="#EE7423" cx="30.063" cy="30.051" rx="30.062" ry="30"/>
<g>
	<path fill="#FFFFFF" d="M7.793,32.843c0.588,0.357,1.446,0.664,2.345,0.664c1.34,0,2.121-0.711,2.121-1.729
		c0-0.941-0.544-1.483-1.911-2.004c-1.653-0.587-2.672-1.443-2.672-2.872c0-1.572,1.307-2.747,3.276-2.747
		c1.04,0,1.789,0.244,2.242,0.498l-0.363,1.065c-0.331-0.182-1.005-0.482-1.927-0.482c-1.381,0-1.908,0.829-1.908,1.518
		c0,0.942,0.614,1.406,2.015,1.946c1.712,0.659,2.585,1.484,2.585,2.972c0,1.561-1.159,2.908-3.544,2.908
		c-0.981,0-2.046-0.287-2.589-0.644L7.793,32.843z"/>
	<path fill="#FFFFFF" d="M15.701,27.17l1.593,4.293c0.165,0.477,0.346,1.049,0.466,1.486h0.031c0.134-0.438,0.284-0.992,0.469-1.513
		l1.443-4.264h1.396l-1.985,5.171c-0.947,2.487-1.59,3.763-2.496,4.544c-0.646,0.571-1.292,0.788-1.621,0.854l-0.333-1.112
		c0.333-0.104,0.77-0.315,1.159-0.643c0.364-0.281,0.812-0.794,1.11-1.472c0.062-0.137,0.105-0.244,0.105-0.313
		c0-0.077-0.03-0.183-0.092-0.35l-2.692-6.685h1.443v-0.001h0.003V27.17z"/>
	<path fill="#FFFFFF" d="M28.718,35.559v0.751h-7.516v-0.751H28.718z"/>
	<path fill="#FFFFFF" d="M36.94,34.104c-0.479,0.234-1.442,0.477-2.682,0.477c-2.852,0-5.001-1.798-5.001-5.115
		c0-3.161,2.149-5.313,5.292-5.313c1.265,0,2.059,0.272,2.402,0.455l-0.315,1.062c-0.496-0.234-1.202-0.417-2.038-0.417
		c-2.375,0-3.953,1.513-3.953,4.171c0,2.476,1.422,4.066,3.889,4.066c0.796,0,1.606-0.163,2.14-0.419L36.94,34.104z"/>
	<path fill="#FFFFFF" d="M40.272,31.255l-1.049,3.176h-1.352l3.446-10.105h1.576l3.457,10.105H44.95l-1.079-3.176H40.272z
		 M43.595,30.232l-0.992-2.911c-0.22-0.662-0.368-1.26-0.524-1.842h-0.031c-0.149,0.594-0.312,1.21-0.505,1.827l-0.992,2.923h3.044
		L43.595,30.232L43.595,30.232z"/>
	<path fill="#FFFFFF" d="M47.84,24.442c0.633-0.102,1.458-0.192,2.511-0.192c1.293,0,2.241,0.298,2.836,0.837
		c0.561,0.475,0.891,1.219,0.891,2.119c0,0.911-0.274,1.632-0.782,2.156c-0.691,0.737-1.822,1.108-3.099,1.108
		c-0.388,0-0.749-0.011-1.052-0.087v4.047h-1.303v-9.988H47.84z M49.145,29.316c0.284,0.075,0.644,0.106,1.084,0.106
		c1.578,0,2.542-0.763,2.542-2.16c0-1.337-0.945-1.981-2.393-1.981c-0.572,0-1.007,0.048-1.233,0.109V29.316L49.145,29.316z"/>
</g>
</svg>
